<svg width="120" height="120" viewBox="0 0 120 120" fill="none" xmlns="http://www.w3.org/2000/svg">
  <g opacity="0.8">
    <!-- Coffee cup pattern -->
    <g transform="translate(10, 10)">
      <path d="M25 2V5C25 6.65685 23.6569 8 22 8H18" stroke="#B45309" stroke-width="2" stroke-linecap="round" stroke-linejoin="round"/>
      <path d="M5 8V16C5 19.866 8.13401 23 12 23H18C21.866 23 25 19.866 25 16V8" stroke="#B45309" stroke-width="2" stroke-linecap="round" stroke-linejoin="round"/>
      <line x1="11" y1="2" x2="11" y2="5" stroke="#B45309" stroke-width="2" stroke-linecap="round" stroke-linejoin="round"/>
      <line x1="19" y1="2" x2="19" y2="5" stroke="#B45309" stroke-width="2" stroke-linecap="round" stroke-linejoin="round"/>
    </g>
    
    <!-- Coffee cup pattern -->
    <g transform="translate(70, 70)">
      <path d="M25 2V5C25 6.65685 23.6569 8 22 8H18" stroke="#B45309" stroke-width="2" stroke-linecap="round" stroke-linejoin="round"/>
      <path d="M5 8V16C5 19.866 8.13401 23 12 23H18C21.866 23 25 19.866 25 16V8" stroke="#B45309" stroke-width="2" stroke-linecap="round" stroke-linejoin="round"/>
      <line x1="11" y1="2" x2="11" y2="5" stroke="#B45309" stroke-width="2" stroke-linecap="round" stroke-linejoin="round"/>
      <line x1="19" y1="2" x2="19" y2="5" stroke="#B45309" stroke-width="2" stroke-linecap="round" stroke-linejoin="round"/>
    </g>
    
    <!-- Coffee bean pattern -->
    <g transform="translate(10, 70)">
      <path d="M10 5C5.5 8 5.5 16 10 19C14.5 22 21.5 22 26 19C30.5 16 30.5 8 26 5C21.5 2 14.5 2 10 5Z" stroke="#B45309" stroke-width="2" stroke-linecap="round" stroke-linejoin="round"/>
      <path d="M18 8.5C16 12 16 15.5 18 19" stroke="#B45309" stroke-width="2" stroke-linecap="round" stroke-linejoin="round"/>
    </g>
    
    <!-- Coffee bean pattern -->
    <g transform="translate(70, 10)">
      <path d="M10 5C5.5 8 5.5 16 10 19C14.5 22 21.5 22 26 19C30.5 16 30.5 8 26 5C21.5 2 14.5 2 10 5Z" stroke="#B45309" stroke-width="2" stroke-linecap="round" stroke-linejoin="round"/>
      <path d="M18 8.5C16 12 16 15.5 18 19" stroke="#B45309" stroke-width="2" stroke-linecap="round" stroke-linejoin="round"/>
    </g>
  </g>
</svg>
